<svg xmlns="http://www.w3.org/2000/svg" version="1.1"
    xmlnsXlink="http://www.w3.org/1999/xlink"
    xmlnssvgjs="http://svgjs.com/svgjs" width="150" height="60" overflow="visible" viewBox="0 0 525 295">
    <g class="signage-logo" opacity="1">
        <defs id="SvgjsDefs1002">
            <linearGradient id="SvgjsLinearGradient49hajRjtdR" gradientUnits="userSpaceOnUse" x1="-2.8421709430404e-14" y1="267.6000061035157" x2="267.6000061035156" y2="-2.8421709430404e-14">
                <stop id="SvgjsStop1010" stop-color="#a08d1c" offset="0.05"></stop>
                <stop id="SvgjsStop1011" stop-color="#332d09" offset="0.95"></stop>
            </linearGradient>
        </defs>
        <g id="SvgjsG1008" transform="scale(1.296547517446191)" opacity="1">
            <g id="SvgjsG1012" class="xtdk2UsYy" transform="translate(129.36710519340693, 0) scale(0.5438639388008248)" light-content="false" non-strokable="false" fill="url(#SvgjsLinearGradient49hajRjtdR)">
                <path d="M219.6 48.1c-22.9-22.9-53.4-35.5-85.8-35.5S71 25.2 48.1 48.1s-35.5 53.4-35.5 85.8 12.6 62.9 35.5 85.8 53.4 35.5 85.8 35.5 62.9-12.6 85.8-35.5 35.5-53.4 35.5-85.8-12.7-62.9-35.6-85.8z"></path>
                <path d="M133.8 0C59.9 0 0 59.9 0 133.8s59.9 133.8 133.8 133.8 133.8-59.9 133.8-133.8S207.8 0 133.8 0zm0 260.1c-69.7 0-126.3-56.5-126.3-126.3S64.1 7.6 133.8 7.6s126.3 56.5 126.3 126.3-56.5 126.2-126.3 126.2z"></path>
            </g>
            <g id="SvgjsG1013" class="TNQ34xfTVW" transform="translate(158.47470386192353, 29.107598668516566) scale(0.8732279600554967)" light-content="true" non-strokable="false" fill="#ffffff">
                <path d="M50 10L10 50l40 40 40-40-40-40zM19.427 50L50 19.427l12.93 12.93-4.714 4.714L50 28.857 28.857 50l8.213 8.216-4.714 4.714L19.427 50zm42.292 0L50 61.722 38.284 50 50 38.284 61.719 50zM37.07 67.644l4.714-4.714L50 71.143 71.146 50l-8.216-8.216 4.714-4.714L80.573 50 50 80.573 37.07 67.644z"></path>
            </g>
            <g id="SvgjsG1014" class="text" transform="translate(200.61000061035156, 228.1472319494805) scale(1)" light-content="false" fill="#332d09">
                <path d="M-153.28 -29.07C-153.28 -37.71 -155.71 -44.32 -160.58 -48.9C-165.45 -53.48 -172.36 -55.77 -181.31 -55.77L-200.61 -55.77L-200.61 0L-182.57 0C-173.29 0 -166.09 -2.52 -160.96 -7.55C-155.84 -12.59 -153.28 -19.76 -153.28 -29.07ZM-168.91 -28.53C-168.91 -23.06 -169.98 -19 -172.12 -16.34C-174.25 -13.69 -177.61 -12.36 -182.19 -12.36L-185.54 -12.36L-185.54 -43.6L-181.16 -43.6C-177.04 -43.6 -173.97 -42.36 -171.95 -39.9C-169.93 -37.43 -168.91 -33.64 -168.91 -28.53Z M-102.82 0L-86.34 0L-104.76 -55.99L-124.87 -55.99L-143.06 0L-126.51 0L-123.68 -10.45L-105.57 -10.45ZM-108.69 -22.81L-120.56 -22.81C-118.24 -31.56 -116.75 -37.42 -116.07 -40.39C-115.4 -43.37 -114.95 -45.51 -114.72 -46.8C-114.47 -45.4 -113.94 -43.09 -113.14 -39.86C-112.34 -36.63 -111.66 -34 -111.1 -31.96Z M-49.24 -44.21C-46.87 -44.21 -44.66 -43.88 -42.6 -43.22C-40.54 -42.56 -38.48 -41.74 -36.42 -40.78L-31.8 -52.64C-37.3 -55.26 -43.06 -56.57 -49.08 -56.57C-54.6 -56.57 -59.4 -55.39 -63.48 -53.04C-67.56 -50.69 -70.69 -47.32 -72.87 -42.95C-75.04 -38.58 -76.13 -33.5 -76.13 -27.73C-76.13 -18.5 -73.88 -11.44 -69.39 -6.56C-64.91 -1.68 -58.45 0.76 -50.04 0.76C-44.16 0.76 -38.9 -0.27 -34.25 -2.33L-34.25 -15.07C-36.58 -14.1 -38.91 -13.27 -41.23 -12.59C-43.54 -11.9 -45.93 -11.56 -48.4 -11.56C-56.56 -11.56 -60.64 -16.92 -60.64 -27.65C-60.64 -32.82 -59.64 -36.87 -57.63 -39.8C-55.62 -42.74 -52.82 -44.21 -49.24 -44.21Z M37.53 0L37.53 -55.77L24.11 -55.77L24.11 -30.55C24.11 -27.15 24.28 -22.63 24.64 -17.01L24.41 -17.01L4.12 -55.77L-15.56 -55.77L-15.56 0L-2.21 0L-2.21 -25.14C-2.21 -28.39 -2.45 -33.11 -2.94 -39.29L-2.59 -39.29L17.77 0Z M82 0L82 -43.45L95.58 -43.45L95.58 -55.77L53.32 -55.77L53.32 -43.45L66.93 -43.45L66.93 0Z M137.53 0L137.53 -43.45L151.11 -43.45L151.11 -55.77L108.85 -55.77L108.85 -43.45L122.46 -43.45L122.46 0Z M203.66 0L203.66 -12.43L182.57 -12.43L182.57 -12.82C188.75 -18.36 192.79 -22.12 194.68 -24.11C196.57 -26.09 198.09 -27.98 199.24 -29.77C200.38 -31.56 201.23 -33.39 201.77 -35.24C202.32 -37.1 202.59 -39.12 202.59 -41.31C202.59 -44.23 201.81 -46.87 200.25 -49.22C198.69 -51.58 196.49 -53.39 193.65 -54.66C190.81 -55.93 187.59 -56.57 183.98 -56.57C181.11 -56.57 178.52 -56.27 176.22 -55.69C173.92 -55.1 171.79 -54.26 169.83 -53.15C167.87 -52.05 165.46 -50.21 162.58 -47.64L170.86 -37.95C173.12 -39.91 175.15 -41.39 176.94 -42.4C178.74 -43.4 180.51 -43.9 182.26 -43.9C183.97 -43.9 185.29 -43.48 186.23 -42.64C187.17 -41.81 187.64 -40.66 187.64 -39.21C187.64 -38.04 187.41 -36.92 186.94 -35.85C186.47 -34.79 185.63 -33.51 184.44 -32.02C183.24 -30.53 180.7 -27.76 176.81 -23.69L163.19 -9.92L163.19 0Z"></path>
            </g>
        </g>
    </g>
</svg>